<svg width="13" height="12" viewBox="0 0 13 12" fill="none" xmlns="http://www.w3.org/2000/svg">
<path fill-rule="evenodd" clip-rule="evenodd" d="M12.25 5.62503C12.25 5.27985 11.9702 5.00003 11.625 5.00003H1.625C1.27982 5.00003 1 5.27985 1 5.62503C1 5.97021 1.27982 6.25003 1.625 6.25003H11.625C11.9702 6.25003 12.25 5.97021 12.25 5.62503Z" fill="black"/>
<path fill-rule="evenodd" clip-rule="evenodd" d="M6.06685 0.183058C5.82277 -0.0610194 5.42704 -0.0610194 5.18296 0.183058L0.182964 5.18306C-0.0611134 5.42714 -0.0611134 5.82286 0.182964 6.06694C0.427042 6.31102 0.822771 6.31102 1.06685 6.06694L6.06685 1.06694C6.31092 0.822864 6.31092 0.427136 6.06685 0.183058Z" fill="black"/>
<path fill-rule="evenodd" clip-rule="evenodd" d="M0.182964 5.18306C-0.0611134 5.42714 -0.0611134 5.82286 0.182964 6.06694L5.18296 11.0669C5.42704 11.311 5.82277 11.311 6.06685 11.0669C6.31092 10.8229 6.31092 10.4271 6.06685 10.1831L1.06685 5.18306C0.822769 4.93898 0.427042 4.93898 0.182964 5.18306Z" fill="black"/>
</svg>
