<svg width="20" height="20" viewBox="0 0 20 20" fill="none" xmlns="http://www.w3.org/2000/svg">
<g clip-path="url(#clip0_1083_2035)">
<path d="M4.16683 6.66665C5.05088 6.66665 5.89873 7.01784 6.52385 7.64296C7.14897 8.26808 7.50016 9.11592 7.50016 9.99998C7.50016 10.884 7.14897 11.7319 6.52385 12.357C5.89873 12.9821 5.05088 13.3333 4.16683 13.3333C3.28277 13.3333 2.43493 12.9821 1.80981 12.357C1.18469 11.7319 0.833496 10.884 0.833496 9.99998C0.833496 9.11592 1.18469 8.26808 1.80981 7.64296C2.43493 7.01784 3.28277 6.66665 4.16683 6.66665ZM10.0002 0.833313C10.8842 0.833313 11.7321 1.1845 12.3572 1.80962C12.9823 2.43474 13.3335 3.28259 13.3335 4.16665C13.3335 5.0507 12.9823 5.89855 12.3572 6.52367C11.7321 7.14879 10.8842 7.49998 10.0002 7.49998C9.11611 7.49998 8.26826 7.14879 7.64314 6.52367C7.01802 5.89855 6.66683 5.0507 6.66683 4.16665C6.66683 3.28259 7.01802 2.43474 7.64314 1.80962C8.26826 1.1845 9.11611 0.833313 10.0002 0.833313ZM10.0002 12.5C10.8842 12.5 11.7321 12.8512 12.3572 13.4763C12.9823 14.1014 13.3335 14.9493 13.3335 15.8333C13.3335 16.7174 12.9823 17.5652 12.3572 18.1903C11.7321 18.8155 10.8842 19.1666 10.0002 19.1666C9.11611 19.1666 8.26826 18.8155 7.64314 18.1903C7.01802 17.5652 6.66683 16.7174 6.66683 15.8333C6.66683 14.9493 7.01802 14.1014 7.64314 13.4763C8.26826 12.8512 9.11611 12.5 10.0002 12.5ZM15.8335 6.66665C16.7175 6.66665 17.5654 7.01784 18.1905 7.64296C18.8156 8.26808 19.1668 9.11592 19.1668 9.99998C19.1668 10.884 18.8156 11.7319 18.1905 12.357C17.5654 12.9821 16.7175 13.3333 15.8335 13.3333C14.9494 13.3333 14.1016 12.9821 13.4765 12.357C12.8514 11.7319 12.5002 10.884 12.5002 9.99998C12.5002 9.11592 12.8514 8.26808 13.4765 7.64296C14.1016 7.01784 14.9494 6.66665 15.8335 6.66665ZM10.0002 2.49998C9.55813 2.49998 9.13421 2.67557 8.82165 2.98813C8.50909 3.3007 8.3335 3.72462 8.3335 4.16665C8.3335 4.60867 8.50909 5.0326 8.82165 5.34516C9.13421 5.65772 9.55813 5.83331 10.0002 5.83331C10.4422 5.83331 10.8661 5.65772 11.1787 5.34516C11.4912 5.0326 11.6668 4.60867 11.6668 4.16665C11.6668 3.72462 11.4912 3.3007 11.1787 2.98813C10.8661 2.67557 10.4422 2.49998 10.0002 2.49998ZM4.16683 8.33331C3.7248 8.33331 3.30088 8.50891 2.98832 8.82147C2.67576 9.13403 2.50016 9.55795 2.50016 9.99998C2.50016 10.442 2.67576 10.8659 2.98832 11.1785C3.30088 11.4911 3.7248 11.6666 4.16683 11.6666C4.60886 11.6666 5.03278 11.4911 5.34534 11.1785C5.6579 10.8659 5.8335 10.442 5.8335 9.99998C5.8335 9.55795 5.6579 9.13403 5.34534 8.82147C5.03278 8.50891 4.60886 8.33331 4.16683 8.33331ZM10.0002 14.1666C9.55813 14.1666 9.13421 14.3422 8.82165 14.6548C8.50909 14.9674 8.3335 15.3913 8.3335 15.8333C8.3335 16.2753 8.50909 16.6993 8.82165 17.0118C9.13421 17.3244 9.55813 17.5 10.0002 17.5C10.4422 17.5 10.8661 17.3244 11.1787 17.0118C11.4912 16.6993 11.6668 16.2753 11.6668 15.8333C11.6668 15.3913 11.4912 14.9674 11.1787 14.6548C10.8661 14.3422 10.4422 14.1666 10.0002 14.1666Z" fill="#191923"/>
</g>
<defs>
<clipPath id="clip0_1083_2035">
<rect width="20" height="20" fill="white"/>
</clipPath>
</defs>
</svg>
