<svg width="31" height="31" viewBox="0 0 31 31" fill="none" xmlns="http://www.w3.org/2000/svg">
<path fill-rule="evenodd" clip-rule="evenodd" d="M0.59961 2.90627C0.59961 2.24154 0.863672 1.60404 1.33371 1.134C1.80374 0.663968 2.44124 0.399906 3.10597 0.399906H28.0905C28.4199 0.399368 28.7462 0.46381 29.0507 0.589542C29.3552 0.715274 29.6319 0.899828 29.8649 1.13264C30.098 1.36545 30.2829 1.64194 30.4089 1.94628C30.535 2.25063 30.5998 2.57685 30.5996 2.90627V27.8908C30.6 28.2203 30.5354 28.5466 30.4095 28.8511C30.2836 29.1556 30.0989 29.4323 29.866 29.6653C29.6331 29.8984 29.3565 30.0832 29.0521 30.2092C28.7477 30.3353 28.4214 30.4001 28.0919 30.3999H3.10597C2.77672 30.3999 2.45069 30.335 2.14651 30.209C1.84234 30.0829 1.56598 29.8982 1.33322 29.6653C1.10047 29.4324 0.91588 29.156 0.790004 28.8517C0.664127 28.5475 0.599431 28.2214 0.59961 27.8922V2.90627ZM12.4742 11.8381H16.5364V13.8781C17.1228 12.7054 18.6228 11.6499 20.8769 11.6499C25.1982 11.6499 26.2223 13.9858 26.2223 18.2717V26.2108H21.8492V19.2481C21.8492 16.8072 21.2628 15.4299 19.7737 15.4299C17.7078 15.4299 16.8487 16.9149 16.8487 19.2481V26.2108H12.4742V11.8381ZM4.97415 26.024H9.3487V11.6499H4.97415V26.024ZM9.97461 6.96172C9.98286 7.33628 9.91621 7.7087 9.77857 8.05715C9.64094 8.4056 9.43509 8.72304 9.17311 8.99086C8.91113 9.25867 8.59829 9.47146 8.25296 9.61673C7.90763 9.762 7.53675 9.83684 7.16211 9.83684C6.78747 9.83684 6.41659 9.762 6.07126 9.61673C5.72593 9.47146 5.41309 9.25867 5.15111 8.99086C4.88913 8.72304 4.68328 8.4056 4.54565 8.05715C4.40801 7.7087 4.34136 7.33628 4.34961 6.96172C4.3658 6.22652 4.66923 5.52689 5.19491 5.01266C5.72059 4.49842 6.42673 4.21047 7.16211 4.21047C7.89749 4.21047 8.60363 4.49842 9.12931 5.01266C9.65499 5.52689 9.95842 6.22652 9.97461 6.96172Z" fill="#191923"/>
</svg>
