<svg width="36" height="36" viewBox="0 0 36 36" fill="none" xmlns="http://www.w3.org/2000/svg">
<path d="M19.5424 3.00148C20.637 2.99728 21.7316 3.00828 22.8259 3.03448L23.1169 3.04498C23.4529 3.05698 23.7844 3.07198 24.1849 3.08998C25.7809 3.16498 26.8699 3.41698 27.8254 3.78748C28.8154 4.16848 29.6494 4.68448 30.4834 5.51848C31.2459 6.26789 31.8361 7.1744 32.2129 8.17498C32.5834 9.13048 32.8354 10.221 32.9104 11.817C32.9284 12.216 32.9434 12.549 32.9554 12.885L32.9644 13.176C32.991 14.2698 33.0025 15.3639 32.9989 16.458L33.0004 17.577V19.542C33.0041 20.6366 32.9926 21.7312 32.9659 22.8255L32.9569 23.1165C32.9449 23.4525 32.9299 23.784 32.9119 24.1845C32.8369 25.7805 32.5819 26.8695 32.2129 27.825C31.8374 28.8266 31.247 29.7339 30.4834 30.483C29.7333 31.2455 28.8263 31.8356 27.8254 32.2125C26.8699 32.583 25.7809 32.835 24.1849 32.91C23.7844 32.928 23.4529 32.943 23.1169 32.955L22.8259 32.964C21.7316 32.9906 20.637 33.0021 19.5424 32.9985L18.4234 33H16.4599C15.3653 33.0037 14.2707 32.9922 13.1764 32.9655L12.8854 32.9565C12.5293 32.9436 12.1733 32.9286 11.8174 32.9115C10.2214 32.8365 9.13238 32.5815 8.17538 32.2125C7.1744 31.8365 6.26773 31.2462 5.51888 30.483C4.75545 29.7334 4.16471 28.8263 3.78788 27.825C3.41738 26.8695 3.16538 25.7805 3.09038 24.1845C3.07367 23.8286 3.05867 23.4725 3.04538 23.1165L3.03788 22.8255C3.01022 21.7312 2.99772 20.6366 3.00038 19.542V16.458C2.99619 15.3639 3.00719 14.2698 3.03338 13.176L3.04388 12.885C3.05588 12.549 3.07088 12.216 3.08888 11.817C3.16388 10.2195 3.41588 9.13198 3.78638 8.17498C4.16344 7.17391 4.75532 6.26765 5.52038 5.51998C6.26872 4.75611 7.17482 4.16484 8.17538 3.78748C9.13238 3.41698 10.2199 3.16498 11.8174 3.08998L12.8854 3.04498L13.1764 3.03748C14.2702 3.00984 15.3643 2.99734 16.4584 2.99998L19.5424 3.00148ZM18.0004 10.5015C17.0066 10.4874 16.02 10.671 15.0978 11.0416C14.1757 11.4121 13.3363 11.9623 12.6286 12.6601C11.9209 13.3578 11.359 14.1893 10.9754 15.1061C10.5918 16.023 10.3943 17.0069 10.3943 18.0007C10.3943 18.9946 10.5918 19.9785 10.9754 20.8953C11.359 21.8122 11.9209 22.6436 12.6286 23.3414C13.3363 24.0392 14.1757 24.5893 15.0978 24.9599C16.02 25.3304 17.0066 25.514 18.0004 25.5C19.9895 25.5 21.8972 24.7098 23.3037 23.3033C24.7102 21.8968 25.5004 19.9891 25.5004 18C25.5004 16.0109 24.7102 14.1032 23.3037 12.6967C21.8972 11.2902 19.9895 10.5015 18.0004 10.5015ZM18.0004 13.5015C18.5981 13.4905 19.1921 13.5987 19.7476 13.8198C20.303 14.0409 20.8089 14.3705 21.2355 14.7893C21.6622 15.2081 22.0011 15.7077 22.2325 16.259C22.4639 16.8103 22.5832 17.4021 22.5833 18C22.5834 18.5978 22.4643 19.1897 22.2331 19.7411C22.0019 20.2924 21.6631 20.7921 21.2366 21.2111C20.8101 21.63 20.3044 21.9598 19.749 22.1811C19.1936 22.4024 18.5996 22.5108 18.0019 22.5C16.8084 22.5 15.6638 22.0259 14.8199 21.182C13.976 20.338 13.5019 19.1935 13.5019 18C13.5019 16.8065 13.976 15.6619 14.8199 14.818C15.6638 13.9741 16.8084 13.5 18.0019 13.5L18.0004 13.5015ZM25.8754 8.25148C25.3915 8.27085 24.9338 8.47671 24.5983 8.82594C24.2628 9.17517 24.0754 9.64068 24.0754 10.125C24.0754 10.6093 24.2628 11.0748 24.5983 11.424C24.9338 11.7733 25.3915 11.9791 25.8754 11.9985C26.3727 11.9985 26.8496 11.8009 27.2012 11.4493C27.5528 11.0977 27.7504 10.6208 27.7504 10.1235C27.7504 9.6262 27.5528 9.14929 27.2012 8.79765C26.8496 8.44602 26.3727 8.24848 25.8754 8.24848V8.25148Z" fill="#191923"/>
</svg>
