<svg width="36" height="36" viewBox="0 0 36 36" fill="none" xmlns="http://www.w3.org/2000/svg">
<path d="M29.7291 2.3999H6.50332C5.73359 2.40075 4.99562 2.7171 4.45134 3.27952C3.90706 3.84195 3.60092 4.60451 3.6001 5.3999V29.3999C3.6001 31.0542 4.9024 32.3999 6.50332 32.3999H29.7291C31.3301 32.3999 32.6324 31.0542 32.6324 29.3999V5.3999C32.6324 3.74562 31.3301 2.3999 29.7291 2.3999ZM28.0318 12.3642C27.9416 14.4738 26.5159 17.3667 23.7547 21.0288C20.9033 24.8592 18.4864 26.7749 16.5163 26.7749C15.2918 26.7749 14.2612 25.6103 13.412 23.2724C11.7592 17.0249 11.0531 13.3617 9.69272 13.3617C9.53719 13.3617 8.98662 13.7035 8.04722 14.3795L7.06219 13.067C9.47913 10.8706 11.7862 8.43312 13.2315 8.29919C14.8646 8.13847 15.8693 9.29026 16.2447 11.761C17.5864 20.5467 18.1826 21.8731 20.6254 17.8949C21.5006 16.4624 21.9734 15.3706 22.0387 14.6206C22.2658 12.3974 20.36 12.5517 19.0701 13.1206C20.1008 9.63204 22.0708 7.93705 24.9803 8.03133C27.138 8.09133 28.1552 9.53776 28.0318 12.3642Z" fill="#191923"/>
</svg>
